<?xml version="1.0" encoding="UTF-8"?>
<svg id="Layer_1" data-name="Layer 1" xmlns="http://www.w3.org/2000/svg" viewBox="0 0 580.74 93.09">
  <defs>
    <style>
      .cls-1 {
        fill: #fff;
      }

      .cls-2 {
        fill: #df1818;
      }

      .cls-3 {
        fill: #ff1c1c;
      }

      .cls-4 {
        fill: #dfdfdf;
      }
    </style>
  </defs>
  <g>
    <path d="m5.89,17.39v-5.89h29.46v5.89h11.79v5.89h5.89v11.79h5.89v17.68h-5.89v5.89h-5.89v5.89h-17.68v11.79h-5.89v5.89h-11.79v-5.89h-5.89v-17.68H0V17.39h5.89Zm23.57,11.79h-11.79v11.79h5.89v5.89h11.79v-11.79h-5.89v-5.89Z"/>
    <path d="m88.39,17.39v-5.89h17.68v5.89h11.79v5.89h5.89v11.79h5.89v29.46h-5.89v11.79h-11.79v5.89h-29.46v-5.89h-11.79v-11.79h-5.89v-29.46h5.89v-11.79h5.89v-5.89h11.79Zm11.79,11.79h-11.79v5.89h-5.89v11.79h5.89v5.89h11.79v-5.89h5.89v-11.79h-5.89v-5.89Z"/>
    <path d="m141.43,17.39v-5.89h11.79v5.89h5.89v17.68h5.89v-11.79h5.89v-11.79h17.68v5.89h5.89v11.79h-5.89v11.79h-5.89v5.89h5.89v11.79h5.89v17.68h-5.89v5.89h-11.79v-5.89h-5.89v-11.79h-5.89v11.79h-5.89v5.89h-11.79v-5.89h-5.89v-29.46h-5.89v-29.46h5.89Z"/>
    <path d="m218.03,17.39v-5.89h35.36v5.89h5.89v11.79h-5.89v5.89h-23.57v5.89h17.68v11.79h-5.89v5.89h-17.68v5.89h29.46v11.79h-5.89v5.89h-41.25v-5.89h-5.89v-29.46h5.89v-17.68h5.89v-11.79h5.89Z"/>
    <path d="m271.07,17.39v-5.89h35.36v5.89h11.79v5.89h5.89v11.79h5.89v35.36h-5.89v5.89h-5.89v5.89h-47.14v-23.57h-5.89V17.39h5.89Zm29.46,17.68h-11.79v17.68h5.89v5.89h5.89v-5.89h5.89v-11.79h-5.89v-5.89Z"/>
    <path d="m353.57,17.39v-5.89h35.36v5.89h5.89v11.79h-5.89v5.89h-23.57v5.89h17.68v11.79h-5.89v5.89h-17.68v5.89h29.46v11.79h-5.89v5.89h-41.25v-5.89h-5.89v-29.46h5.89v-17.68h5.89v-11.79h5.89Z"/>
    <path d="m406.6,17.39v-5.89h11.79v5.89h5.89v5.89h11.79v-5.89h5.89v-5.89h11.79v5.89h5.89v11.79h-5.89v5.89h-5.89v5.89h5.89v5.89h5.89v11.79h5.89v17.68h-5.89v5.89h-11.79v-5.89h-5.89v-11.79h-5.89v-5.89h-11.79v5.89h-5.89v11.79h-5.89v5.89h-11.79v-5.89h-5.89v-17.68h5.89v-11.79h5.89v-5.89h5.89v-5.89h-5.89v-5.89h-5.89v-11.79h5.89Z"/>
  </g>
  <g id="Pokéball">
    <g id="Colours">
      <path id="Down" class="cls-1" d="m534.18,61.62c-7.35,0-13.49-5.21-14.94-12.12h-24.46c1.73,20.11,18.6,35.9,39.15,35.9s37.44-15.78,39.15-35.9h-23.95c-1.46,6.94-7.59,12.12-14.94,12.12Z"/>
      <path id="Shadow_Down" data-name="Shadow Down" class="cls-4" d="m542.92,84.38c16.31-3.82,28.71-17.78,30.16-34.88h-9.65c-.96,15.51-9.1,28.65-20.51,34.88Z"/>
      <path id="Center" class="cls-1" d="m543.19,46.5h0s-.02,0,0,0c-.02-1.11-.22-2.17-.58-3.15-1.27-3.42-4.57-5.84-8.43-5.84s-7.15,2.44-8.43,5.84c-.36.98-.56,2.04-.56,3.15h.02c0,1.11.2,2.17.56,3.15,1.27,3.42,4.57,5.84,8.43,5.84s7.15-2.44,8.43-5.84c.36-.96.56-2.04.56-3.15h0Z"/>
      <path id="Up" class="cls-3" d="m534.2,31.29c7.35,0,13.49,5.21,14.94,11.21h24.46c-1.73-19.22-18.6-35-39.17-35s-37.42,15.78-39.15,36h23.97c1.46-7.02,7.59-12.21,14.94-12.21Z"/>
      <path id="Shadow_Up" data-name="Shadow Up" class="cls-2" d="m563.43,43.5h10.16c-1.49-17.38-14.31-31.55-31.04-35.06,11.61,6.13,19.9,19.4,20.88,35.06Z"/>
    </g>
    <path id="Line" d="m534.44,7.6c20.57,0,37.44,15.78,39.15,35.9h-24.46c-1.46-6.92-7.59-12.12-14.94-12.12s-13.49,5.21-14.94,12.12h-23.95c1.73-20.11,18.6-35.9,39.15-35.9Zm8.17,35.75c.36.98.56,2.04.56,3.15h.02c0,1.11-.2,2.17-.56,3.15-1.27,3.42-4.57,5.84-8.43,5.84s-7.15-2.44-8.43-5.84c-.36-.98-.56-2.04-.56-3.15h-.02c0-1.11.2-2.17.56-3.15,1.27-3.42,4.57-5.84,8.43-5.84s7.15,2.44,8.43,5.84Zm-8.68,42.04c-20.57,0-37.44-15.78-39.15-35.9h24.46c1.46,6.92,7.59,12.12,14.94,12.12s13.49-5.21,14.94-12.12h23.97c-1.73,20.1-18.6,35.9-39.17,35.9Zm.25-85.4c-25.7,0-46.54,20.84-46.54,46.54s20.84,46.54,46.54,46.54,46.56-20.82,46.56-46.54S559.9,0,534.18,0Z"/>
  </g>
</svg>